<svg width="1em" height="1em" viewBox="0 0 16 16" xmlns="http://www.w3.org/2000/svg">
  <path d="m 6.95,0.435 c 0.58,-0.58 1.52,-0.58 2.1,0 l 6.515,6.516 c 0.58,0.58 0.58,1.519 0,2.098 L 9.05,15.565 c -0.58,0.58 -1.519,0.58 -2.098,0 L 0.435,9.05 a 1.482,1.482 0 0 1 0,-2.098 z m 1.4,0.7 a 0.495,0.495 0 0 0 -0.7,0 L 1.134,7.65 a 0.495,0.495 0 0 0 0,0.7 l 6.516,6.516 a 0.495,0.495 0 0 0 0.7,0 L 14.866,8.35 a 0.495,0.495 0 0 0 0,-0.7 L 8.35,1.134 Z" />
      <path d="M 8.1933594,2.2851562 C 7.7142195,2.2460533 7.2732684,2.4510711 6.9492188,2.7480469 6.6251691,3.0450226 6.3874596,3.4317927 6.203125,3.8554688 5.8344558,4.7028208 5.6770867,5.6992768 5.7832031,6.5273438 5.8894817,7.3566791 6.3147341,7.8450243 6.734375,8.8769531 6.8025247,9.0452298 6.9565281,9.1633489 7.1367188,9.1855469 8.0913378,9.3016354 8.8579324,9.4538987 9.6425781,9.515625 9.8424896,9.531225 10.032387,9.4258973 10.125,9.2480469 10.687381,8.1672189 10.734674,6.5937171 10.447266,5.1855469 10.303561,4.4814618 10.070003,3.8209784 9.7148438,3.2910156 9.3596849,2.7610529 8.8438836,2.338246 8.1933594,2.2851562 Z" />
      <path d="m 6.9570312,10.509766 c -0.2550264,-0.0051 -0.4730063,0.182593 -0.5058593,0.435546 -0.095537,0.745781 -0.2089133,1.342901 -0.058594,1.919922 0.07516,0.288511 0.2491431,0.576105 0.5136719,0.763672 0.2645288,0.187568 0.5850396,0.278984 0.9609375,0.320313 0.3322664,0.03654 0.644106,0.01358 0.9238281,-0.109375 0.2797222,-0.122959 0.4999122,-0.348816 0.6425782,-0.59961 C 9.7189256,12.738647 9.7935561,12.134336 9.8925781,11.361328 9.9269026,11.084633 9.7283062,10.833312 9.4511719,10.802734 8.8698561,10.73702 7.838421,10.629011 7.0175781,10.513672 c -0.020085,-0.0025 -0.040304,-0.0038 -0.060547,-0.0039 z" />
</svg>
