<svg width="1em" height="1em" viewBox="0 0 16 16" xmlns="http://www.w3.org/2000/svg">
<path d="m 6.95,0.435 c 0.58,-0.58 1.52,-0.58 2.1,0 l 6.515,6.516 c 0.58,0.58 0.58,1.519 0,2.098 L 9.05,15.565 c -0.58,0.58 -1.519,0.58 -2.098,0 L 0.435,9.05 a 1.482,1.482 0 0 1 0,-2.098 z m 1.4,0.7 a 0.495,0.495 0 0 0 -0.7,0 L 1.134,7.65 a 0.495,0.495 0 0 0 0,0.7 l 6.516,6.516 a 0.495,0.495 0 0 0 0.7,0 L 14.866,8.35 a 0.495,0.495 0 0 0 0,-0.7 L 8.35,1.134 Z"/>
    <path d="M 11.189738,10.90526 10.871978,10.2223 C 10.753153,9.966753 10.47334,9.788249 10.191487,9.788249 H 9.2802633 V 3.9029761 c 0,-0.1469931 -0.06323,-0.3488957 -0.147105,-0.4696589 L 8.2287793,2.130953 C 8.1709853,2.0477397 8.0858313,2 7.9950938,2 7.9043638,2 7.8191823,2.047738 7.7613883,2.130953 L 6.8570053,3.4332897 C 6.7731883,3.5540275 6.7099298,3.7559556 6.7099298,3.9029487 V 9.788249 H 5.7987033 c -0.281767,0 -0.561578,0.178425 -0.6804535,0.433916 L 4.8004063,10.90526 c -0.125616,0.27 -0.0083,0.59064 0.26137,0.716231 0.269935,0.125581 0.590612,0.0081 0.716224,-0.261337 L 6.0076623,10.8665 h 1.1297915 l 0.2271365,1.097058 c -0.2930165,0.201364 -0.4856165,0.538727 -0.4856165,0.92035 0,0.615399 0.5006855,1.116092 1.11612,1.116092 0.6154425,0 1.11612,-0.500693 1.11612,-1.116092 0,-0.381623 -0.1926,-0.718986 -0.4856135,-0.92035 l 0.22711,-1.097058 h 1.129767 l 0.2296897,0.493654 c 0.09139,0.196365 0.285893,0.311821 0.489146,0.31179 0.07612,0 0.153514,-0.01619 0.227104,-0.05047 0.269944,-0.125583 0.386961,-0.446226 0.261321,-0.716223 z" />
</svg>
