<svg
   xmlns="http://www.w3.org/2000/svg"
   width="1em"
   height="1em"
   viewBox="0 0 16 16"
   class="bi bi-eyeglasses"
   fill="currentColor">
  <path
     d="M 15.896566,7.3337046 C 15.527466,7.184056 14.985017,6.4797286 14.409283,5.7346375 13.3654,4.380194 12.181827,2.8453402 10.906473,2.8453402 c -1.6850486,0 -2.6044564,1.023418 -2.9225384,1.4650515 C 7.6279886,3.9102782 6.6541173,2.9822974 5.2850073,2.9822974 c -1.0748978,0 -2.3854259,1.538552 -3.5404221,2.8959372 C 1.0776174,6.6611475 0.44775706,7.4006493 0.11135246,7.5151655 0.04789575,7.5371442 0.00419047,7.5952218 2.8221168e-4,7.6616203 -0.00362605,7.7282708 0.03322927,7.7912653 0.09429059,7.8198418 0.65918137,8.0861919 1.2382764,8.8051438 1.9086902,9.6371831 c 0.9379406,1.1649979 2.0014077,2.4852759 3.4139709,3.0272209 0.8600695,0.329597 1.7843522,0.490256 2.8268072,0.490256 0.9972789,0 1.9635857,-0.15238 2.6935477,-0.284211 1.254846,-0.227561 3.131274,-2.72162 4.25181,-4.2122643 0.357921,-0.4765556 0.728533,-0.9689545 0.821785,-1.0290072 0.05417,-0.031014 0.08741,-0.091067 0.083,-0.1540611 -0.0039,-0.063079 -0.04345,-0.1180043 -0.103043,-0.1414118 z M 14.164198,7.8207243 C 13.418602,8.3136274 11.554404,9.3167477 8.5686608,9.4539991 5.4830679,9.5936039 3.2043417,8.5033672 2.2282851,7.9242722 2.8927734,7.7692445 3.4562774,7.4567517 3.9630906,7.1752729 4.537773,6.8566866 5.0345844,6.5813013 5.5526181,6.5813013 c 0.6406186,0 1.2719498,0.2075161 1.7790151,0.3744786 0.4069634,0.1340156 0.7299203,0.2390343 0.9670214,0.2214682 0.2133574,-0.014162 0.496097,-0.097664 0.8232142,-0.1950769 0.4975678,-0.1474633 1.1171742,-0.3310255 1.7142972,-0.3310255 0.429195,0 0.979503,0.2556339 1.56196,0.5266067 0.578128,0.2699641 1.17231,0.546316 1.766072,0.6429719 z"     style="stroke-width:0.0420243" />
</svg>
