<svg width="1em" height="1em" viewBox="0 0 16 16" xmlns="http://www.w3.org/2000/svg">
	<path d="M 7.3678735,12.792063 4.2079373,9.6322445 c -0.2455487,-0.2456077 -0.6438873,-0.2456077 -0.8897309,0 L 1.8075275,11.142806 C 1.2867684,11.663388 1,12.35793 1,13.098291 c 0,0.740302 0.2868273,1.434844 0.8074095,1.955721 l 0.138873,0.138696 C 2.4668647,15.713291 3.1614067,16 3.901768,16 4.6421292,16 5.3366123,15.713291 5.8573714,15.19259 l 1.510679,-1.510796 c 0.2455487,-0.245785 0.2455487,-0.644006 -1.769e-4,-0.889731 z m -2.400174,1.510856 c -0.2830533,0.282994 -0.6616371,0.438791 -1.0658726,0.438791 -0.4042944,0 -0.7828192,-0.155856 -1.0658135,-0.438791 L 2.6973762,14.164223 C 2.4143229,13.88111 2.2583488,13.502526 2.2583488,13.098291 c 0,-0.404294 0.1559741,-0.782701 0.4389685,-1.065696 L 3.7631308,10.9669 6.0334541,13.237046 Z" />
    <path d="M 5.5078006,6.1008009 C 5.4100882,6.7012866 5.3091915,7.3222938 4.9838571,8.0623012 4.8795402,8.2996532 4.9314923,8.5769275 5.1149462,8.7603814 l 3.1745016,3.1746196 c 0.1209463,0.120887 0.2818739,0.184338 0.4450423,0.184338 0.096946,0 0.1947761,-0.02235 0.2851759,-0.06846 C 10.240569,11.429338 11.558477,10.191511 12.6352,8.6545902 13.757507,7.0526265 14.461248,5.3682826 14.616691,3.9117965 14.766886,2.5053754 14.533898,1.4486432 13.924449,0.77055361 13.471328,0.26648288 12.828089,0 12.064317,0 10.92261,0 9.523619,0.60231381 8.2258787,1.6526184 5.9288423,3.5115709 5.7243363,4.769271 5.5078006,6.1008009 Z m 6.5565754,-4.842629 c 0.408246,0 0.710582,0.115639 0.924405,0.3535217 0.355586,0.395508 0.485849,1.1447147 0.376874,2.1664781 -0.2541,2.3807141 -2.389855,5.6035117 -4.5241943,6.9292623 L 6.2992293,8.1651439 C 6.4722457,7.6986957 6.5739679,7.2764745 6.6488002,6.8868635 c 0.2454077,-1.3353777 0,0 0.2803407,-1.49918 C 7.1482123,4.5627011 7.5989157,3.7787614 9.017543,2.6305675 10.079406,1.7713829 11.218401,1.2581719 12.064376,1.2581719 Z" />
</svg>
