<svg width="1em" height="1em" viewBox="0 0 16 16" xmlns="http://www.w3.org/2000/svg">
<path d="m 9.6764,11.980284 -3.4361795,-0.54418 c -0.2670464,-0.04233 -0.5179241,0.139995 -0.5603844,0.407145 l -0.2602433,1.642697 c -0.089774,0.566185 0.047433,1.134857 0.3862251,1.601163 0.3387653,0.46627 0.8372435,0.772467 1.403478,0.862311 l 0.1509364,0.02381 C 7.9263331,16.0629 8.494978,15.92561 8.961284,15.586855 9.427589,15.248061 9.733803,14.749691 9.82352,14.183431 l 0.260137,-1.642842 c 0.04222,-0.267171 -0.140046,-0.517983 -0.407255,-0.560304 z" />
  <path d="m 5.2937727,7.7329166 c 0.2275334,0.4512592 0.4629401,0.9178671 0.6056206,1.5740336 0.045773,0.2104488 0.2160799,0.3714193 0.4289464,0.4051315 l 3.6834593,0.5834723 c 0.140303,0.02219 0.279431,-0.01388 0.389091,-0.0934 0.06516,-0.04736 0.119986,-0.110127 0.158225,-0.185253 C 11.076136,9.0030651 11.357436,7.5277019 11.330609,5.9691017 11.302657,4.3445322 10.953191,2.8689715 10.34651,1.8142541 9.76073,0.79574088 9.088188,0.19933351 8.3475227,0.04120373 7.7968881,-0.07630986 7.2344894,0.05867503 6.7212039,0.43159899 5.9539304,0.98905865 5.3078403,2.0769187 4.9485344,3.4164101 4.3124955,5.7872674 4.7891521,6.7323466 5.2937727,7.7329166 Z" />
</svg>