<svg xmlns="http://www.w3.org/2000/svg" version="1.1" viewBox="0 0 16 16" width="1em" height="1em">
<path
   d="M 3.540713,13.42814 C 3.4334859,13.230886 3.2980874,13.04736 3.1347934,12.884066 2.9635608,12.713055 2.7695045,12.573521 2.5614453,12.463427 2.3128106,12.331833 2.5093477,12.049955 2.5093477,12.049955 2.7638261,11.662779 2.9958668,11.273784 3.187718,10.934903 L 1.8997243,9.6479567 H 0.64932918 c -0.24047544,0 -0.43541381,-0.1951036 -0.43541381,-0.4356342 0,-0.2404204 0.19493837,-0.4355241 0.43541381,-0.4355241 H 2.0797777 c 0.1157722,0 0.2264174,0.045868 0.3080643,0.1274597 L 7.0947548,13.60632 c 0.081757,0.08176 0.1276251,0.192678 0.1276251,0.308118 v 1.437396 c 0,0.24064 -0.1949935,0.435359 -0.4355241,0.435359 -0.2407511,0 -0.4357447,-0.194663 -0.4357447,-0.435359 V 14.094988 L 5.0682448,12.813776 C 4.7219754,13.018141 4.3194741,13.268705 3.9206664,13.544244 3.9206113,13.54414 3.6921541,13.706766 3.540713,13.42814 Z"/><path
   d="m 1.4821174,13.071286 c -0.3917512,0 -0.75990683,0.152378 -1.03709861,0.42913 C 0.16832317,13.77689 0.016,14.144661 0.016,14.53564 c 0,0.391255 0.15237829,0.758693 0.42901879,1.035114 0.27713665,0.27653 0.64534741,0.429073 1.03709861,0.429183 0.3915306,0 0.7597414,-0.152709 1.0366575,-0.429183 0.2769162,-0.276476 0.4294599,-0.644024 0.4294599,-1.035114 0,-0.391035 -0.1525988,-0.758805 -0.4294599,-1.035224 -0.276861,-0.276752 -0.6451269,-0.42913 -1.0366575,-0.42913 z" /><path
   d="M 5.5823837,10.051065 C 5.3893198,10.243964 5.0734269,10.243964 4.880363,10.05112 L 4.3946709,9.5659239 c -0.193064,-0.1928435 -0.193064,-0.5084606 0,-0.7013041 L 12.685671,0.5823301 C 12.878735,0.38948666 13.259074,0.21147308 13.530808,0.186775 l 2.032189,-0.18479452 c 0.271788,-0.02469807 0.473894,0.17740715 0.449197,0.44919623 L 15.827729,2.479451 c -0.0247,0.271789 -0.202877,0.6519078 -0.395941,0.8448064 L 7.1402918,11.60754 c -0.1930639,0.192843 -0.5089567,0.192843 -0.7020207,0 L 5.9519175,11.121682 c -0.1930639,-0.192843 -0.1930639,-0.508461 0,-0.70136 L 12.89384,3.48485 C 12.996051,3.3829705 12.996161,3.217361 12.894047,3.1153712 12.792169,3.013216 12.626503,3.013216 12.524183,3.1152572 Z"
    />
</svg>
