<svg xmlns="http://www.w3.org/2000/svg" version="1.1" viewBox="0 0 16 16" width="1em" height="1em">
<path
   d="M 16,0 H 13.519439 L 5.1006317,8.4188072 3.9564913,7.2746668 3.5789474,6.1423159 C 3.5171931,5.9562107 3.338386,5.8433686 3.1438597,5.8672282 2.9493334,5.8910879 2.8030877,6.0440704 2.7879299,6.2397194 L 2.6273685,8.3275792 4.3065264,10.006737 1.4012632,12.912281 H 0.63831581 C 0.28631579,12.912281 0,13.198597 0,13.550597 v 1.811088 C 0,15.713685 0.28631579,16 0.63831581,16 H 2.4494036 c 0.352,0 0.6383158,-0.286315 0.6383158,-0.638315 V 14.401404 L 5.894737,11.594387 7.5848423,13.284492 9.5121405,12.963088 C 9.7044211,12.93137 9.8439301,12.773053 9.8517893,12.578526 9.8596949,12.384 9.7333332,12.215018 9.5441406,12.167579 L 8.6186668,11.936281 7.4837896,10.801404 16,2.3828772 Z M 2.5263159,15.361685 c 0,0.04238 -0.034526,0.07691 -0.076912,0.07691 H 0.63831581 c -0.0423859,0 -0.0769123,-0.03452 -0.0769123,-0.07691 v -1.811088 c 0,-0.04239 0.0345263,-0.07692 0.0769123,-0.07692 H 0.83985967 2.4494036 c 0.042386,0 0.076912,0.03453 0.076912,0.07692 v 1.41221 z m 0.5614035,-1.754106 v -0.05699 c 0,-0.352 -0.2863158,-0.638316 -0.6383158,-0.638316 H 2.1950877 l 2.5089124,-2.508907 0.3977544,0.397755 0.3960702,0.396069 z M 8.6854739,12.53193 7.7774037,12.683509 6.2916493,11.197755 v 0 L 5.4964212,10.402526 3.2072983,8.1134037 3.2892632,7.0478598 3.4661053,7.5783862 4.7040001,8.8162809 v 0 l 1.185965,1.1859651 2.4418245,2.441824 z M 7.0868773,10.404491 6.294737,9.6123511 5.4978247,8.8154388 13.75186,0.56140353 h 1.191017 L 6.6888422,8.8157195 c -0.1097543,0.1097543 -0.1097543,0.2871579 0,0.3969123 0.054737,0.054736 0.1265965,0.082246 0.1984562,0.082246 0.07186,0 0.1437193,-0.027508 0.1984562,-0.082246 L 15.438596,0.85950879 V 2.1484913 Z" />
</svg>
